<?xml version="1.0" encoding="UTF-8"?>
<!DOCTYPE svg PUBLIC "-//W3C//DTD SVG 1.1//EN" "http://www.w3.org/Graphics/SVG/1.1/DTD/svg11.dtd">
<svg xmlns="http://www.w3.org/2000/svg" version="1.1" width="32px" height="32px" style="shape-rendering:geometricPrecision; text-rendering:geometricPrecision; image-rendering:optimizeQuality; fill-rule:evenodd; clip-rule:evenodd" xmlns:xlink="http://www.w3.org/1999/xlink">
<g><path style="opacity:0.012" fill="#15639b" d="M 0.5,2.5 C 0.896566,1.47498 1.56323,1.30831 2.5,2C 1.90558,2.46434 1.23891,2.63101 0.5,2.5 Z"/></g>
<g><path style="opacity:0.008" fill="#007f7e" d="M -0.5,2.5 C -0.166667,2.5 0.166667,2.5 0.5,2.5C 0.5,2.83333 0.5,3.16667 0.5,3.5C 0.166667,3.16667 -0.166667,2.83333 -0.5,2.5 Z"/></g>
<g><path style="opacity:0.669" fill="#1b729b" d="M 22.5,2.5 C 22.5,3.16667 22.5,3.83333 22.5,4.5C 21.5084,4.32842 20.8417,4.66175 20.5,5.5C 19.5,5.83333 18.8333,6.5 18.5,7.5C 17.8333,7.5 17.5,7.83333 17.5,8.5C 18.1098,9.39105 18.4431,10.391 18.5,11.5C 18.1667,11.5 17.8333,11.5 17.5,11.5C 16.8333,11.5 16.1667,11.5 15.5,11.5C 15.7678,9.90097 15.4345,8.56764 14.5,7.5C 14.9175,6.77842 15.5842,6.27842 16.5,6C 11.5111,5.50074 6.51108,5.33407 1.5,5.5C 1.5,4.83333 1.16667,4.5 0.5,4.5C 0.5,4.16667 0.5,3.83333 0.5,3.5C 7.95719,2.56948 15.2905,2.23615 22.5,2.5 Z"/></g>
<g><path style="opacity:0.562" fill="#2d71aa" d="M 22.5,2.5 C 25.9936,4.50039 28.1603,7.50039 29,11.5C 29.3333,10.5 29.6667,9.5 30,8.5C 30.4935,10.1341 30.6602,11.8008 30.5,13.5C 30.1667,13.5 29.8333,13.5 29.5,13.5C 29.1667,12.1667 28.8333,12.1667 28.5,13.5C 27.8333,13.5 27.1667,13.5 26.5,13.5C 26.1667,13.5 25.8333,13.5 25.5,13.5C 25.5,13.1667 25.5,12.8333 25.5,12.5C 26.8333,11.5 26.8333,10.5 25.5,9.5C 25.5,9.16667 25.5,8.83333 25.5,8.5C 25.3678,5.99309 24.3678,5.32642 22.5,6.5C 22.1667,6.5 21.8333,6.5 21.5,6.5C 20.8333,6.5 20.5,6.16667 20.5,5.5C 21.4916,5.67158 22.1583,5.33825 22.5,4.5C 22.5,3.83333 22.5,3.16667 22.5,2.5 Z"/></g>
<g><path style="opacity:0.434" fill="#1c709e" d="M 2.5,6.5 C 6.39977,7.42993 10.3998,7.76326 14.5,7.5C 11.3157,9.41365 7.64903,10.0803 3.5,9.5C 3.5,8.83333 3.16667,8.5 2.5,8.5C 2.5,8.16667 2.5,7.83333 2.5,7.5C 2.5,7.16667 2.5,6.83333 2.5,6.5 Z"/></g>
<g><path style="opacity:0.843" fill="#1f5f89" d="M 21.5,6.5 C 21.8333,6.5 22.1667,6.5 22.5,6.5C 23.2905,7.40128 24.2905,8.06795 25.5,8.5C 25.5,8.83333 25.5,9.16667 25.5,9.5C 25.5,10.5 25.5,11.5 25.5,12.5C 25.1667,12.5 24.8333,12.5 24.5,12.5C 24.7373,11.209 24.404,10.209 23.5,9.5C 22.791,8.59603 21.791,8.26269 20.5,8.5C 19.8333,8.5 19.5,8.16667 19.5,7.5C 20.4916,7.67158 21.1583,7.33825 21.5,6.5 Z"/></g>
<g><path style="opacity:0.236" fill="#196899" d="M -0.5,4.5 C -0.166667,4.5 0.166667,4.5 0.5,4.5C 1.16667,4.5 1.5,4.83333 1.5,5.5C 1.5,6.16667 1.83333,6.5 2.5,6.5C 2.5,6.83333 2.5,7.16667 2.5,7.5C 1.16667,7.83333 1.16667,8.16667 2.5,8.5C 2.5,8.83333 2.5,9.16667 2.5,9.5C 1.16667,12.1667 1.16667,14.8333 2.5,17.5C 2.83333,17.5 3.16667,17.5 3.5,17.5C 0.741651,18.9665 1.07498,19.6332 4.5,19.5C 4.5,19.8333 4.5,20.1667 4.5,20.5C 3.5,20.5 2.5,20.5 1.5,20.5C 0.833333,17.8333 0.166667,15.1667 -0.5,12.5C -0.5,9.83333 -0.5,7.16667 -0.5,4.5 Z"/></g>
<g><path style="opacity:0.973" fill="#3e8fb9" d="M 18.5,7.5 C 18.8333,7.5 19.1667,7.5 19.5,7.5C 19.5,8.16667 19.8333,8.5 20.5,8.5C 19.7659,9.70792 19.4326,11.0413 19.5,12.5C 20.8333,12.5 22.1667,12.5 23.5,12.5C 23.5,11.5 23.5,10.5 23.5,9.5C 24.404,10.209 24.7373,11.209 24.5,12.5C 24.5,12.8333 24.5,13.1667 24.5,13.5C 23.8333,13.5 23.5,13.8333 23.5,14.5C 22.1667,14.5 20.8333,14.5 19.5,14.5C 18.8902,13.609 18.5569,12.609 18.5,11.5C 18.4431,10.391 18.1098,9.39105 17.5,8.5C 18.1667,8.5 18.5,8.16667 18.5,7.5 Z"/></g>
<g><path style="opacity:0.442" fill="#1f6f9f" d="M 2.5,9.5 C 2.83333,9.5 3.16667,9.5 3.5,9.5C 5.98785,11.3878 8.98785,12.0545 12.5,11.5C 12.5,12.1667 12.5,12.8333 12.5,13.5C 9.5,13.5 6.5,13.5 3.5,13.5C 3.16667,13.5 2.83333,13.5 2.5,13.5C 2.5,12.1667 2.5,10.8333 2.5,9.5 Z"/></g>
<g><path style="opacity:0.98" fill="#ade2fd" d="M 20.5,8.5 C 21.791,8.26269 22.791,8.59603 23.5,9.5C 23.5,10.5 23.5,11.5 23.5,12.5C 22.1667,12.5 20.8333,12.5 19.5,12.5C 19.4326,11.0413 19.7659,9.70792 20.5,8.5 Z"/></g>
<g><path style="opacity:0.702" fill="#1d72a1" d="M -0.5,12.5 C 0.166667,15.1667 0.833333,17.8333 1.5,20.5C 1.5,21.1667 1.5,21.8333 1.5,22.5C 1.16667,22.5 0.833333,22.5 0.5,22.5C 0.5,21.8333 0.166667,21.5 -0.5,21.5C -0.5,18.5 -0.5,15.5 -0.5,12.5 Z"/></g>
<g><path style="opacity:0.247" fill="#1c74a2" d="M 12.5,11.5 C 13.5,11.5 14.5,11.5 15.5,11.5C 16.1667,11.5 16.8333,11.5 17.5,11.5C 17.5,12.5 17.5,13.5 17.5,14.5C 17.1667,14.5 16.8333,14.5 16.5,14.5C 15.8333,14.5 15.1667,14.5 14.5,14.5C 14.1583,13.6618 13.4916,13.3284 12.5,13.5C 12.5,12.8333 12.5,12.1667 12.5,11.5 Z"/></g>
<g><path style="opacity:0.008" fill="#007f7e" d="M 30.5,13.5 C 30.8333,13.5 31.1667,13.5 31.5,13.5C 31.5,13.8333 31.5,14.1667 31.5,14.5C 31.1667,14.1667 30.8333,13.8333 30.5,13.5 Z"/></g>
<g><path style="opacity:0.617" fill="#1d678c" d="M 2.5,13.5 C 2.83333,13.5 3.16667,13.5 3.5,13.5C 5.71791,15.8441 8.38458,16.1774 11.5,14.5C 11.5,15.1667 11.5,15.8333 11.5,16.5C 8.94551,17.388 6.27884,17.7214 3.5,17.5C 3.16667,17.5 2.83333,17.5 2.5,17.5C 2.5,16.1667 2.5,14.8333 2.5,13.5 Z"/></g>
<g><path style="opacity:0.999" fill="#66a3cb" d="M 11.5,14.5 C 12.5,14.5 13.5,14.5 14.5,14.5C 15.1667,14.5 15.8333,14.5 16.5,14.5C 16.5,16.5 16.5,18.5 16.5,20.5C 15.1667,20.5 13.8333,20.5 12.5,20.5C 11.5655,19.4324 11.2322,18.099 11.5,16.5C 11.5,15.8333 11.5,15.1667 11.5,14.5 Z"/></g>
<g><path style="opacity:0.792" fill="#6a92c5" d="M 24.5,13.5 C 24.8333,13.5 25.1667,13.5 25.5,13.5C 25.8333,20.1667 26.1667,20.1667 26.5,13.5C 27.1667,13.5 27.8333,13.5 28.5,13.5C 28.8333,13.5 29.1667,13.5 29.5,13.5C 29.5,14.1667 29.8333,14.5 30.5,14.5C 30.5,14.8333 30.5,15.1667 30.5,15.5C 29.5041,15.5858 28.6708,15.2524 28,14.5C 27.5065,16.1341 27.3398,17.8008 27.5,19.5C 27.1667,19.5 26.8333,19.5 26.5,19.5C 25.8333,19.5 25.5,19.8333 25.5,20.5C 24.8333,18.8333 24.1667,17.1667 23.5,15.5C 23.5,15.1667 23.5,14.8333 23.5,14.5C 24.1667,14.5 24.5,14.1667 24.5,13.5 Z"/></g>
<g><path style="opacity:0.008" fill="#267193" d="M 4.5,19.5 C 6.36352,18.2072 8.36352,18.2072 10.5,19.5C 9.21354,19.4764 7.88021,19.8097 6.5,20.5C 6.16667,20.5 5.83333,20.5 5.5,20.5C 5.5,19.8333 5.16667,19.5 4.5,19.5 Z"/></g>
<g><path style="opacity:0.988" fill="#98d5f7" d="M 30.5,15.5 C 30.5,17.1667 30.5,18.8333 30.5,20.5C 29.209,20.7373 28.209,20.404 27.5,19.5C 27.3398,17.8008 27.5065,16.1341 28,14.5C 28.6708,15.2524 29.5041,15.5858 30.5,15.5 Z"/></g>
<g><path style="opacity:1" fill="#60a3cc" d="M 1.5,20.5 C 2.5,20.5 3.5,20.5 4.5,20.5C 4.83333,20.5 5.16667,20.5 5.5,20.5C 5.5,21.1667 5.83333,21.5 6.5,21.5C 6.5,21.8333 6.5,22.1667 6.5,22.5C 6.76781,24.099 6.43448,25.4324 5.5,26.5C 5.16667,26.5 4.83333,26.5 4.5,26.5C 4.5,25.8333 4.16667,25.5 3.5,25.5C 3.5,24.8333 3.16667,24.5 2.5,24.5C 2.5,23.8333 2.16667,23.5 1.5,23.5C 1.5,23.1667 1.5,22.8333 1.5,22.5C 1.5,21.8333 1.5,21.1667 1.5,20.5 Z"/></g>
<g><path style="opacity:0.004" fill="#193548" d="M 6.5,21.5 C 6.5,21.1667 6.5,20.8333 6.5,20.5C 7.83333,20.5 8.5,21.1667 8.5,22.5C 8.16667,22.5 7.83333,22.5 7.5,22.5C 7.5,21.8333 7.16667,21.5 6.5,21.5 Z"/></g>
<g><path style="opacity:0.641" fill="#1e639c" d="M 16.5,14.5 C 16.8333,14.5 17.1667,14.5 17.5,14.5C 17.3379,16.5273 17.5045,18.5273 18,20.5C 18.1909,18.2922 18.6909,16.2922 19.5,14.5C 20.5676,15.4345 21.901,15.7678 23.5,15.5C 22.4324,16.4345 21.099,16.7678 19.5,16.5C 19.5,18.1667 19.5,19.8333 19.5,21.5C 18.5084,21.3284 17.8417,21.6618 17.5,22.5C 16.8333,22.5 16.1667,22.5 15.5,22.5C 14.5,21.8333 13.5,21.1667 12.5,20.5C 13.8333,20.5 15.1667,20.5 16.5,20.5C 16.5,18.5 16.5,16.5 16.5,14.5 Z"/></g>
<g><path style="opacity:0.835" fill="#2870a6" d="M 30.5,15.5 C 30.8333,15.5 31.1667,15.5 31.5,15.5C 31.5,17.5 31.5,19.5 31.5,21.5C 29.901,21.2322 28.5676,21.5655 27.5,22.5C 26.1667,22.8333 26.1667,23.1667 27.5,23.5C 27.573,25.0269 26.9063,26.0269 25.5,26.5C 25.1583,25.6618 24.4916,25.3284 23.5,25.5C 24.9053,23.5474 24.2386,22.5474 21.5,22.5C 19.9704,22.6399 18.9704,23.3065 18.5,24.5C 16.8333,24.5 15.1667,24.5 13.5,24.5C 13.5,23.8333 13.1667,23.5 12.5,23.5C 13.209,22.596 14.209,22.2627 15.5,22.5C 16.1667,23.8333 16.8333,23.8333 17.5,22.5C 17.8417,21.6618 18.5084,21.3284 19.5,21.5C 21.7354,21.7947 23.7354,21.4614 25.5,20.5C 26.1667,20.5 26.5,20.1667 26.5,19.5C 26.8333,19.5 27.1667,19.5 27.5,19.5C 28.209,20.404 29.209,20.7373 30.5,20.5C 30.5,18.8333 30.5,17.1667 30.5,15.5 Z"/></g>
<g><path style="opacity:0.016" fill="#2d5f81" d="M 27.5,23.5 C 27.5,23.1667 27.5,22.8333 27.5,22.5C 28.8333,22.5 30.1667,22.5 31.5,22.5C 31.5,22.8333 31.5,23.1667 31.5,23.5C 30.1667,23.5 28.8333,23.5 27.5,23.5 Z"/></g>
<g><path style="opacity:0.004" fill="#3f60c7" d="M -0.5,22.5 C -0.166667,22.5 0.166667,22.5 0.5,22.5C 0.5,23.1667 0.833333,23.5 1.5,23.5C 2.16667,23.5 2.5,23.8333 2.5,24.5C 3.16667,24.5 3.5,24.8333 3.5,25.5C 4.16667,25.5 4.5,25.8333 4.5,26.5C 4.5,27.1667 4.83333,27.5 5.5,27.5C 5.5,27.8333 5.5,28.1667 5.5,28.5C 3.24595,27.5849 1.24595,26.2516 -0.5,24.5C -0.5,23.8333 -0.5,23.1667 -0.5,22.5 Z"/></g>
<g><path style="opacity:0.992" fill="#70b6d6" d="M 23.5,25.5 C 23.8417,26.3382 24.5084,26.6716 25.5,26.5C 24.8946,28.4812 23.8946,28.8146 22.5,27.5C 21.3634,26.2112 20.0301,25.2112 18.5,24.5C 18.9704,23.3065 19.9704,22.6399 21.5,22.5C 24.2386,22.5474 24.9053,23.5474 23.5,25.5 Z"/></g>
<g><path style="opacity:0.688" fill="#1e6d91" d="M 6.5,22.5 C 6.83333,22.5 7.16667,22.5 7.5,22.5C 7.83333,23.8333 8.16667,23.8333 8.5,22.5C 9.70792,23.2341 11.0413,23.5674 12.5,23.5C 13.1667,23.5 13.5,23.8333 13.5,24.5C 7.86798,25.5513 9.53464,25.5513 18.5,24.5C 20.0301,25.2112 21.3634,26.2112 22.5,27.5C 17.179,28.7219 11.5124,28.7219 5.5,27.5C 5.5,27.1667 5.5,26.8333 5.5,26.5C 6.43448,25.4324 6.76781,24.099 6.5,22.5 Z"/></g>
<g><path style="opacity:0.012" fill="#0054aa" d="M 5.5,28.5 C 6.83333,29.1667 6.83333,29.1667 5.5,28.5 Z"/></g>
<g><path style="opacity:0.012" fill="#15639b" d="M 20.5,30.5 C 20.8966,29.475 21.5632,29.3083 22.5,30C 21.9056,30.4643 21.2389,30.631 20.5,30.5 Z"/></g>
</svg>
