<?xml version="1.0" encoding="UTF-8"?>
<!DOCTYPE svg PUBLIC "-//W3C//DTD SVG 1.1//EN" "http://www.w3.org/Graphics/SVG/1.1/DTD/svg11.dtd">
<svg xmlns="http://www.w3.org/2000/svg" version="1.1" width="512px" height="1024px" style="shape-rendering:geometricPrecision; text-rendering:geometricPrecision; image-rendering:optimizeQuality; fill-rule:evenodd; clip-rule:evenodd" xmlns:xlink="http://www.w3.org/1999/xlink">
<g><path style="opacity:0.004" fill="#387398" d="M 215.5,328.5 C 215.897,327.475 216.563,327.308 217.5,328C 216.906,328.464 216.239,328.631 215.5,328.5 Z"/></g>
<g><path style="opacity:0.004" fill="#397396" d="M 232.5,327.5 C 233.833,328.167 233.833,328.167 232.5,327.5 Z"/></g>
<g><path style="opacity:0.004" fill="#3b749b" d="M 207.5,328.5 C 208.833,329.167 208.833,329.167 207.5,328.5 Z"/></g>
<g><path style="opacity:0.012" fill="#3a7296" d="M 240.5,329.5 C 241.833,330.167 241.833,330.167 240.5,329.5 Z"/></g>
<g><path style="opacity:0.012" fill="#3d7499" d="M 244.5,330.5 C 243.833,329.167 243.833,329.167 244.5,330.5 Z"/></g>
<g><path style="opacity:0.004" fill="#3c7196" d="M 244.5,330.5 C 245.833,331.167 245.833,331.167 244.5,330.5 Z"/></g>
<g><path style="opacity:0.008" fill="#3a7297" d="M 246.5,330.5 C 247.833,331.167 247.833,331.167 246.5,330.5 Z"/></g>
<g><path style="opacity:0.004" fill="#3c7395" d="M 251.5,333.5 C 252.833,334.167 252.833,334.167 251.5,333.5 Z"/></g>
<g><path style="opacity:0.004" fill="#3b7192" d="M 184.5,335.5 C 185.833,336.167 185.833,336.167 184.5,335.5 Z"/></g>
<g><path style="opacity:0.008" fill="#377195" d="M 258.5,335.5 C 259.833,336.167 259.833,336.167 258.5,335.5 Z"/></g>
<g><path style="opacity:0.004" fill="#397093" d="M 256.5,337.5 C 256.369,336.761 256.536,336.094 257,335.5C 257.692,336.437 257.525,337.103 256.5,337.5 Z"/></g>
<g><path style="opacity:0.008" fill="#3b7296" d="M 183.5,337.5 C 184.833,338.167 184.833,338.167 183.5,337.5 Z"/></g>
<g><path style="opacity:0.004" fill="#3b7094" d="M 187.5,338.5 C 186.833,337.167 186.833,337.167 187.5,338.5 Z"/></g>
<g><path style="opacity:0.016" fill="#3d7296" d="M 176.5,347.5 C 175.833,346.167 175.833,346.167 176.5,347.5 Z"/></g>
<g><path style="opacity:0.008" fill="#376d8f" d="M 396.5,347.5 C 397.833,348.167 397.833,348.167 396.5,347.5 Z"/></g>
<g><path style="opacity:0.004" fill="#376d8e" d="M 403.5,349.5 C 404.833,350.167 404.833,350.167 403.5,349.5 Z"/></g>
<g><path style="opacity:0.004" fill="#3b7093" d="M 167.5,353.5 C 168.833,354.167 168.833,354.167 167.5,353.5 Z"/></g>
<g><path style="opacity:0.998" fill="#0e4f84" d="M 256.5,337.5 C 270.996,347.001 280.996,360.001 286.5,376.5C 292.217,404.687 284.217,428.021 262.5,446.5C 254.027,452.231 244.693,456.064 234.5,458C 235.167,458.333 235.833,458.667 236.5,459C 234.551,466.894 233.884,475.061 234.5,483.5C 233.67,475.01 233.17,466.343 233,457.5C 232.833,462 232.667,466.5 232.5,471C 232.532,475.919 233.199,480.586 234.5,485C 258.337,485.83 282.004,485.663 305.5,484.5C 311.726,486.722 315.393,491.056 316.5,497.5C 315.615,515.369 315.115,533.369 315,551.5C 315.278,550.584 315.778,549.918 316.5,549.5C 316.371,551.216 316.038,552.883 315.5,554.5C 312.11,558.714 307.777,561.547 302.5,563C 279.836,563.5 257.169,563.667 234.5,563.5C 234.5,574.167 234.5,584.833 234.5,595.5C 245.014,595.172 255.347,595.506 265.5,596.5C 266.167,596.5 266.833,596.5 267.5,596.5C 268.945,598.063 270.611,599.396 272.5,600.5C 273.081,602.997 274.581,604.664 277,605.5C 280.883,604.474 284.383,602.807 287.5,600.5C 290.992,599.59 293.992,597.924 296.5,595.5C 298.027,595.573 299.027,594.906 299.5,593.5C 301.434,592.89 303.101,591.89 304.5,590.5C 306.233,589.992 306.566,589.159 305.5,588C 307.809,588.924 309.476,588.091 310.5,585.5C 324.566,575.435 336.232,563.101 345.5,548.5C 360.758,526.904 371.092,502.571 376.5,475.5C 378.736,469.129 380.236,462.462 381,455.5C 383.828,434.249 384.828,412.915 384,391.5C 382.293,393.037 380.793,394.704 379.5,396.5C 376.5,398.833 373.833,401.5 371.5,404.5C 368.167,407.167 365.167,410.167 362.5,413.5C 358.467,416.68 355.3,420.013 353,423.5C 352.055,423.095 351.388,422.428 351,421.5C 345.169,422.671 340.669,420.671 337.5,415.5C 337.481,413.94 337.148,412.44 336.5,411C 337,409.5 337.5,408 338,406.5C 340.335,403.335 342.835,400.335 345.5,397.5C 349.472,393.193 353.472,388.859 357.5,384.5C 361.833,380.833 365.833,376.833 369.5,372.5C 378.45,364.768 385.783,356.935 391.5,349C 396.065,348.819 400.399,349.819 404.5,352C 418.367,366.699 432.367,381.199 446.5,395.5C 448.5,398.167 450.833,400.5 453.5,402.5C 459.002,412.996 456.002,419.663 444.5,422.5C 442.484,421.822 440.484,421.156 438.5,420.5C 433.554,414.887 428.221,409.554 422.5,404.5C 418.87,400.369 415.037,396.369 411,392.5C 410.821,396.025 410.321,399.359 409.5,402.5C 409.824,398.445 409.491,394.445 408.5,390.5C 407.424,405.495 406.924,420.495 407,435.5C 407.181,432.305 407.681,429.305 408.5,426.5C 408.363,434.541 407.696,442.541 406.5,450.5C 407.021,452.524 407.188,454.524 407,456.5C 406.667,456.167 406.333,455.833 406,455.5C 403.484,468.915 400.651,482.248 397.5,495.5C 393.113,508.649 388.113,521.649 382.5,534.5C 381.662,534.842 381.328,535.508 381.5,536.5C 375.765,546.298 369.765,555.965 363.5,565.5C 362.512,566.795 361.512,568.128 360.5,569.5C 349.87,583.131 337.87,595.464 324.5,606.5C 320.779,608.354 317.446,610.687 314.5,613.5C 311.291,615.265 308.291,617.265 305.5,619.5C 303.326,619.75 301.659,620.75 300.5,622.5C 294.643,624.93 288.977,627.597 283.5,630.5C 282.5,630.5 281.5,630.5 280.5,630.5C 279.041,630.433 277.708,630.766 276.5,631.5C 275.669,643.993 275.169,656.66 275,669.5C 274.562,675.275 271.729,679.442 266.5,682C 238.562,683.641 210.562,683.975 182.5,683C 176.667,681.167 172.833,677.333 171,671.5C 170.333,652.167 170.333,632.833 171,613.5C 172.098,612.033 173.598,611.199 175.5,611C 174.833,610.667 174.167,610.333 173.5,610C 173.818,607.958 173.985,605.791 174,603.5C 175.936,600.897 178.436,599.064 181.5,598C 191.675,597.83 201.675,597.33 211.5,596.5C 212.167,596.5 212.5,596.167 212.5,595.5C 213.495,584.346 213.828,573.012 213.5,561.5C 190.327,561.169 167.327,561.502 144.5,562.5C 144.167,562.5 143.833,562.5 143.5,562.5C 141.5,562.167 139.5,561.833 137.5,561.5C 136.205,560.512 134.872,559.512 133.5,558.5C 132.974,556.77 131.974,555.436 130.5,554.5C 129.235,551.07 128.235,547.57 127.5,544C 127.958,540.582 127.958,536.916 127.5,533C 128.323,520.575 128.823,508.075 129,495.5C 129.959,493.047 131.126,490.714 132.5,488.5C 134.698,486.902 137.031,485.569 139.5,484.5C 138.537,485.363 138.537,486.03 139.5,486.5C 163.791,485.676 188.124,485.176 212.5,485C 213.651,475.578 213.818,466.078 213,456.5C 212.5,465.494 212.334,474.494 212.5,483.5C 209.5,483.5 206.5,483.5 203.5,483.5C 205.948,482.527 208.615,482.194 211.5,482.5C 211.83,476.132 211.496,469.798 210.5,463.5C 208.997,461.414 207.664,459.248 206.5,457C 203.568,455.855 200.568,455.022 197.5,454.5C 196.07,453.463 194.403,452.796 192.5,452.5C 187.871,449.179 183.204,445.846 178.5,442.5C 177.5,440.833 176.167,439.5 174.5,438.5C 174.5,437.833 174.167,437.5 173.5,437.5C 173.5,436.833 173.167,436.5 172.5,436.5C 172.573,434.973 171.906,433.973 170.5,433.5C 170.5,432.833 170.167,432.5 169.5,432.5C 168,428.827 166,425.494 163.5,422.5C 153.124,394.816 157.457,369.816 176.5,347.5C 180.39,344.729 184.057,341.729 187.5,338.5C 206.154,328.548 224.82,326.381 243.5,332C 247.855,333.846 252.188,335.679 256.5,337.5 Z"/></g>
<g><path style="opacity:0.999" fill="#21aaf8" d="M 210.5,352.5 C 210.842,351.662 211.508,351.328 212.5,351.5C 220.372,352.176 228.372,353.009 236.5,354C 243.015,356.753 249.015,360.253 254.5,364.5C 262.739,372.494 266.739,382.327 266.5,394C 265.186,416.309 253.853,430.642 232.5,437C 206.698,440.519 189.531,430.019 181,405.5C 177.113,391.705 179.613,379.371 188.5,368.5C 191.631,365.871 194.631,363.038 197.5,360C 202.399,357.258 206.733,354.758 210.5,352.5 Z"/></g>
<g><path style="opacity:0.996" fill="#27c2f8" d="M 254.5,364.5 C 249.015,360.253 243.015,356.753 236.5,354C 228.372,353.009 220.372,352.176 212.5,351.5C 225.795,349.072 238.129,351.572 249.5,359C 251.373,360.704 253.04,362.537 254.5,364.5 Z"/></g>
<g><path style="opacity:1" fill="#28c7f9" d="M 210.5,352.5 C 206.733,354.758 202.399,357.258 197.5,360C 194.631,363.038 191.631,365.871 188.5,368.5C 193.674,360.242 201.008,354.908 210.5,352.5 Z"/></g>
<g><path style="opacity:0.004" fill="#35729b" d="M 368.5,371.5 C 367.227,370.923 367.227,370.257 368.5,369.5C 369.463,369.97 369.463,370.637 368.5,371.5 Z"/></g>
<g><path style="opacity:0.004" fill="#3b7295" d="M 159.5,370.5 C 160.833,371.167 160.833,371.167 159.5,370.5 Z"/></g>
<g><path style="opacity:0.016" fill="#34749b" d="M 368.5,371.5 C 369.167,371.5 369.5,371.833 369.5,372.5C 369.167,372.167 368.833,371.833 368.5,371.5 Z"/></g>
<g><path style="opacity:0.012" fill="#36739e" d="M 286.5,376.5 C 286.369,375.761 286.536,375.094 287,374.5C 287.692,375.437 287.525,376.103 286.5,376.5 Z"/></g>
<g><path style="opacity:0.008" fill="#3674a0" d="M 360.5,378.5 C 359.833,377.167 359.833,377.167 360.5,378.5 Z"/></g>
<g><path style="opacity:0.004" fill="#31719c" d="M 360.5,378.5 C 361.833,379.167 361.833,379.167 360.5,378.5 Z"/></g>
<g><path style="opacity:0.004" fill="#33739c" d="M 352.5,384.5 C 352.897,383.475 353.563,383.308 354.5,384C 353.906,384.464 353.239,384.631 352.5,384.5 Z"/></g>
<g><path style="opacity:0.004" fill="#34729b" d="M 357.5,384.5 C 356.833,383.167 356.833,383.167 357.5,384.5 Z"/></g>
<g><path style="opacity:0.004" fill="#3d7193" d="M 156.5,384.5 C 157.525,384.897 157.692,385.563 157,386.5C 156.536,385.906 156.369,385.239 156.5,384.5 Z"/></g>
<g><path style="opacity:0.004" fill="#3c7394" d="M 155.5,389.5 C 156.833,390.167 156.833,390.167 155.5,389.5 Z"/></g>
<g><path style="opacity:0.004" fill="#35759d" d="M 345.5,391.5 C 346.833,392.167 346.833,392.167 345.5,391.5 Z"/></g>
<g><path style="opacity:0.004" fill="#37769f" d="M 347.5,391.5 C 348.833,392.167 348.833,392.167 347.5,391.5 Z"/></g>
<g><path style="opacity:0.004" fill="#3574a0" d="M 343.5,393.5 C 344.833,394.167 344.833,394.167 343.5,393.5 Z"/></g>
<g><path style="opacity:0.012" fill="#37739f" d="M 346.5,393.5 C 347.833,394.167 347.833,394.167 346.5,393.5 Z"/></g>
<g><path style="opacity:0.004" fill="#316c93" d="M 446.5,394.5 C 447.833,395.167 447.833,395.167 446.5,394.5 Z"/></g>
<g><path style="opacity:0.004" fill="#3a79a1" d="M 345.5,397.5 C 344.833,396.167 344.833,396.167 345.5,397.5 Z"/></g>
<g><path style="opacity:0.004" fill="#2e6d9a" d="M 379.5,396.5 C 380.833,397.167 380.833,397.167 379.5,396.5 Z"/></g>
<g><path style="opacity:0.004" fill="#30719e" d="M 382.5,396.5 C 383.833,397.167 383.833,397.167 382.5,396.5 Z"/></g>
<g><path style="opacity:0.004" fill="#3b7297" d="M 156.5,398.5 C 155.833,397.167 155.833,397.167 156.5,398.5 Z"/></g>
<g><path style="opacity:0.016" fill="#31719e" d="M 412.5,397.5 C 413.833,398.167 413.833,398.167 412.5,397.5 Z"/></g>
<g><path style="opacity:0.008" fill="#3a7196" d="M 156.5,398.5 C 157.833,399.167 157.833,399.167 156.5,398.5 Z"/></g>
<g><path style="opacity:0.004" fill="#32749e" d="M 412.5,398.5 C 411.833,399.167 411.833,399.167 412.5,398.5 Z"/></g>
<g><path style="opacity:0.004" fill="#38759c" d="M 335.5,399.5 C 336.833,400.167 336.833,400.167 335.5,399.5 Z"/></g>
<g><path style="opacity:0.008" fill="#326b95" d="M 454.5,400.5 C 453.833,399.167 453.833,399.167 454.5,400.5 Z"/></g>
<g><path style="opacity:0.004" fill="#346c93" d="M 454.5,400.5 C 455.757,401.623 455.424,402.289 453.5,402.5C 453.833,401.833 454.167,401.167 454.5,400.5 Z"/></g>
<g><path style="opacity:0.004" fill="#30709d" d="M 416.5,401.5 C 417.833,402.167 417.833,402.167 416.5,401.5 Z"/></g>
<g><path style="opacity:0.004" fill="#38769d" d="M 335.5,401.5 C 336.525,401.897 336.692,402.563 336,403.5C 335.536,402.906 335.369,402.239 335.5,401.5 Z"/></g>
<g><path style="opacity:0.004" fill="#3a779f" d="M 336.5,404.5 C 337.833,405.167 337.833,405.167 336.5,404.5 Z"/></g>
<g><path style="opacity:0.004" fill="#306e9a" d="M 371.5,404.5 C 372.833,405.167 372.833,405.167 371.5,404.5 Z"/></g>
<g><path style="opacity:0.004" fill="#316f9e" d="M 415.5,404.5 C 416.833,405.167 416.833,405.167 415.5,404.5 Z"/></g>
<g><path style="opacity:0.004" fill="#32709d" d="M 422.5,404.5 C 421.833,405.167 421.833,405.167 422.5,404.5 Z"/></g>
<g><path style="opacity:0.004" fill="#32729c" d="M 420.5,406.5 C 421.833,407.167 421.833,407.167 420.5,406.5 Z"/></g>
<g><path style="opacity:0.004" fill="#306f9b" d="M 423.5,408.5 C 424.833,409.167 424.833,409.167 423.5,408.5 Z"/></g>
<g><path style="opacity:0.004" fill="#306f98" d="M 410.5,412.5 C 411.833,413.167 411.833,413.167 410.5,412.5 Z"/></g>
<g><path style="opacity:0.004" fill="#34719a" d="M 362.5,413.5 C 363.167,413.5 363.5,413.833 363.5,414.5C 363.167,414.167 362.833,413.833 362.5,413.5 Z"/></g>
<g><path style="opacity:0.008" fill="#36779e" d="M 336.5,415.5 C 335.833,414.167 335.833,414.167 336.5,415.5 Z"/></g>
<g><path style="opacity:0.012" fill="#33729d" d="M 363.5,414.5 C 364.833,415.167 364.833,415.167 363.5,414.5 Z"/></g>
<g><path style="opacity:0.004" fill="#31719d" d="M 430.5,414.5 C 431.833,415.167 431.833,415.167 430.5,414.5 Z"/></g>
<g><path style="opacity:0.008" fill="#3779a0" d="M 285.5,415.5 C 286.833,416.167 286.833,416.167 285.5,415.5 Z"/></g>
<g><path style="opacity:0.008" fill="#3a779e" d="M 336.5,415.5 C 336.833,415.5 337.167,415.5 337.5,415.5C 337.315,416.17 336.981,416.17 336.5,415.5 Z"/></g>
<g><path style="opacity:0.012" fill="#397499" d="M 159.5,416.5 C 160.833,417.167 160.833,417.167 159.5,416.5 Z"/></g>
<g><path style="opacity:0.004" fill="#39769d" d="M 336.5,416.5 C 335.833,417.167 335.833,417.167 336.5,416.5 Z"/></g>
<g><path style="opacity:0.986" fill="#193d68" d="M 409.5,402.5 C 409.801,410.586 409.467,418.586 408.5,426.5C 407.681,429.305 407.181,432.305 407,435.5C 406.924,420.495 407.424,405.495 408.5,390.5C 409.491,394.445 409.824,398.445 409.5,402.5 Z"/></g>
<g><path style="opacity:0.008" fill="#327099" d="M 432.5,416.5 C 433.833,417.167 433.833,417.167 432.5,416.5 Z"/></g>
<g><path style="opacity:0.008" fill="#39739d" d="M 338.5,419.5 C 339.833,420.167 339.833,420.167 338.5,419.5 Z"/></g>
<g><path style="opacity:0.004" fill="#356f99" d="M 434.5,419.5 C 435.833,420.167 435.833,420.167 434.5,419.5 Z"/></g>
<g><path style="opacity:0.004" fill="#39749a" d="M 159.5,420.5 C 163.243,420.459 163.41,421.126 160,422.5C 159.536,421.906 159.369,421.239 159.5,420.5 Z"/></g>
<g><path style="opacity:0.004" fill="#326f97" d="M 438.5,420.5 C 437.833,421.167 437.833,421.167 438.5,420.5 Z"/></g>
<g><path style="opacity:0.004" fill="#34719c" d="M 431.5,421.5 C 432.833,422.167 432.833,422.167 431.5,421.5 Z"/></g>
<g><path style="opacity:0.008" fill="#3a7499" d="M 163.5,422.5 C 162.833,423.167 162.833,423.167 163.5,422.5 Z"/></g>
<g><path style="opacity:0.004" fill="#347098" d="M 435.5,423.5 C 435.897,422.475 436.563,422.308 437.5,423C 436.906,423.464 436.239,423.631 435.5,423.5 Z"/></g>
<g><path style="opacity:0.004" fill="#357197" d="M 438.5,422.5 C 439.833,423.167 439.833,423.167 438.5,422.5 Z"/></g>
<g><path style="opacity:0.008" fill="#387298" d="M 169.5,432.5 C 169.5,432.833 169.5,433.167 169.5,433.5C 168.833,433.5 168.5,433.833 168.5,434.5C 167.427,433.749 167.26,432.749 168,431.5C 168.383,432.056 168.883,432.389 169.5,432.5 Z"/></g>
<g><path style="opacity:0.004" fill="#387096" d="M 169.5,433.5 C 169.833,433.5 170.167,433.5 170.5,433.5C 170.315,434.17 169.981,434.17 169.5,433.5 Z"/></g>
<g><path style="opacity:0.004" fill="#387398" d="M 168.5,434.5 C 168.833,434.5 169.167,434.5 169.5,434.5C 169.315,435.17 168.981,435.17 168.5,434.5 Z"/></g>
<g><path style="opacity:0.008" fill="#38739b" d="M 171.5,436.5 C 170.833,435.167 170.833,435.167 171.5,436.5 Z"/></g>
<g><path style="opacity:0.014" fill="#367199" d="M 171.5,436.5 C 171.833,436.5 172.167,436.5 172.5,436.5C 173.167,436.5 173.5,436.833 173.5,437.5C 173.5,437.833 173.5,438.167 173.5,438.5C 171.797,439.66 171.131,438.993 171.5,436.5 Z"/></g>
<g><path style="opacity:0.004" fill="#37749c" d="M 173.5,438.5 C 173.833,438.5 174.167,438.5 174.5,438.5C 174.315,439.17 173.981,439.17 173.5,438.5 Z"/></g>
<g><path style="opacity:0.004" fill="#36749a" d="M 178.5,442.5 C 177.833,443.167 177.833,443.167 178.5,442.5 Z"/></g>
<g><path style="opacity:0.004" fill="#36769d" d="M 175.5,445.5 C 176.833,446.167 176.833,446.167 175.5,445.5 Z"/></g>
<g><path style="opacity:0.004" fill="#37719b" d="M 262.5,446.5 C 263.833,447.167 263.833,447.167 262.5,446.5 Z"/></g>
<g><path style="opacity:0.004" fill="#35769d" d="M 379.5,450.5 C 380.525,450.897 380.692,451.563 380,452.5C 379.536,451.906 379.369,451.239 379.5,450.5 Z"/></g>
<g><path style="opacity:0.008" fill="#3373a0" d="M 192.5,452.5 C 191.833,453.167 191.833,453.167 192.5,452.5 Z"/></g>
<g><path style="opacity:0.004" fill="#35749d" d="M 189.5,453.5 C 190.833,454.167 190.833,454.167 189.5,453.5 Z"/></g>
<g><path style="opacity:0.004" fill="#33729f" d="M 197.5,454.5 C 196.833,455.167 196.833,455.167 197.5,454.5 Z"/></g>
<g><path style="opacity:0.007" fill="#33719a" d="M 406.5,457.5 C 407.573,458.251 407.74,459.251 407,460.5C 406.517,459.552 406.351,458.552 406.5,457.5 Z"/></g>
<g><path style="opacity:0.02" fill="#2970a0" d="M 207.5,462.5 C 208.833,463.167 208.833,463.167 207.5,462.5 Z"/></g>
<g><path style="opacity:0.012" fill="#357098" d="M 405.5,463.5 C 406.833,464.167 406.833,464.167 405.5,463.5 Z"/></g>
<g><path style="opacity:0.004" fill="#2d719e" d="M 207.5,464.5 C 208.833,465.167 208.833,465.167 207.5,464.5 Z"/></g>
<g><path style="opacity:0.008" fill="#2b70a0" d="M 209.5,464.5 C 210.833,465.167 210.833,465.167 209.5,464.5 Z"/></g>
<g><path style="opacity:0.004" fill="#34759d" d="M 377.5,463.5 C 378.525,463.897 378.692,464.563 378,465.5C 377.536,464.906 377.369,464.239 377.5,463.5 Z"/></g>
<g><path style="opacity:0.004" fill="#2a6e9e" d="M 209.5,467.5 C 210.525,467.897 210.692,468.563 210,469.5C 209.536,468.906 209.369,468.239 209.5,467.5 Z"/></g>
<g><path style="opacity:0.004" fill="#3578a3" d="M 376.5,467.5 C 377.833,468.167 377.833,468.167 376.5,467.5 Z"/></g>
<g><path style="opacity:0.004" fill="#3779a0" d="M 375.5,471.5 C 376.833,472.167 376.833,472.167 375.5,471.5 Z"/></g>
<g><path style="opacity:0.004" fill="#2a6c9c" d="M 209.5,472.5 C 210.833,473.167 210.833,473.167 209.5,472.5 Z"/></g>
<g><path style="opacity:0.004" fill="#35749d" d="M 376.5,475.5 C 375.833,474.167 375.833,474.167 376.5,475.5 Z"/></g>
<g><path style="opacity:0.008" fill="#296c9c" d="M 209.5,475.5 C 210.833,476.167 210.833,476.167 209.5,475.5 Z"/></g>
<g><path style="opacity:0.004" fill="#296c99" d="M 235.5,477.5 C 236.833,478.167 236.833,478.167 235.5,477.5 Z"/></g>
<g><path style="opacity:0.008" fill="#407696" d="M 137.5,479.5 C 138.833,480.167 138.833,480.167 137.5,479.5 Z"/></g>
<g><path style="opacity:0.004" fill="#417ea2" d="M 153.5,480.5 C 154.833,481.167 154.833,481.167 153.5,480.5 Z"/></g>
<g><path style="opacity:0.004" fill="#3a79a4" d="M 177.5,480.5 C 178.833,481.167 178.833,481.167 177.5,480.5 Z"/></g>
<g><path style="opacity:0.008" fill="#2e73a0" d="M 209.5,479.5 C 210.043,479.56 210.376,479.893 210.5,480.5C 209.635,481.583 208.635,481.749 207.5,481C 208.416,480.722 209.082,480.222 209.5,479.5 Z"/></g>
<g><path style="opacity:0.004" fill="#407da6" d="M 279.5,480.5 C 280.833,481.167 280.833,481.167 279.5,480.5 Z"/></g>
<g><path style="opacity:0.004" fill="#3e7a9f" d="M 308.5,480.5 C 309.833,481.167 309.833,481.167 308.5,480.5 Z"/></g>
<g><path style="opacity:0.004" fill="#3f7796" d="M 140.5,481.5 C 141.833,482.167 141.833,482.167 140.5,481.5 Z"/></g>
<g><path style="opacity:0.004" fill="#437b9d" d="M 305.5,482.5 C 306.833,483.167 306.833,483.167 305.5,482.5 Z"/></g>
<g><path style="opacity:0.994" fill="#0b2d5f" d="M 139.5,484.5 C 142.34,483.88 145.174,483.213 148,482.5C 167.359,482.507 185.859,482.84 203.5,483.5C 206.5,483.5 209.5,483.5 212.5,483.5C 212.334,474.494 212.5,465.494 213,456.5C 213.818,466.078 213.651,475.578 212.5,485C 188.124,485.176 163.791,485.676 139.5,486.5C 138.537,486.03 138.537,485.363 139.5,484.5 Z"/></g>
<g><path style="opacity:0.986" fill="#0a2f62" d="M 234.5,483.5 C 258.06,483.446 281.727,483.446 305.5,483.5C 305.5,483.833 305.5,484.167 305.5,484.5C 282.004,485.663 258.337,485.83 234.5,485C 233.199,480.586 232.532,475.919 232.5,471C 232.667,466.5 232.833,462 233,457.5C 233.17,466.343 233.67,475.01 234.5,483.5 Z"/></g>
<g><path style="opacity:0.004" fill="#3f7492" d="M 132.5,488.5 C 131.833,487.167 131.833,487.167 132.5,488.5 Z"/></g>
<g><path style="opacity:0.004" fill="#417392" d="M 127.5,489.5 C 128.833,490.167 128.833,490.167 127.5,489.5 Z"/></g>
<g><path style="opacity:0.004" fill="#3f7193" d="M 127.5,492.5 C 128.833,493.167 128.833,493.167 127.5,492.5 Z"/></g>
<g><path style="opacity:0.008" fill="#327098" d="M 398.5,495.5 C 398.369,494.761 398.536,494.094 399,493.5C 399.692,494.437 399.525,495.103 398.5,495.5 Z"/></g>
<g><path style="opacity:0.008" fill="#336f98" d="M 397.5,495.5 C 397.833,495.5 398.167,495.5 398.5,495.5C 398.315,496.17 397.981,496.17 397.5,495.5 Z"/></g>
<g><path style="opacity:0.004" fill="#35769e" d="M 368.5,497.5 C 367.833,496.167 367.833,496.167 368.5,497.5 Z"/></g>
<g><path style="opacity:0.004" fill="#35779f" d="M 368.5,497.5 C 369.525,497.897 369.692,498.563 369,499.5C 368.536,498.906 368.369,498.239 368.5,497.5 Z"/></g>
<g><path style="opacity:0.006" fill="#357197" d="M 397.5,497.5 C 398.525,497.897 398.692,498.563 398,499.5C 397.536,498.906 397.369,498.239 397.5,497.5 Z"/></g>
<g><path style="opacity:0.004" fill="#3c789f" d="M 318.5,500.5 C 319.833,501.167 319.833,501.167 318.5,500.5 Z"/></g>
<g><path style="opacity:0.004" fill="#36749a" d="M 396.5,500.5 C 397.833,501.167 397.833,501.167 396.5,500.5 Z"/></g>
<g><path style="opacity:0.004" fill="#387398" d="M 398.5,500.5 C 399.833,501.167 399.833,501.167 398.5,500.5 Z"/></g>
<g><path style="opacity:0.004" fill="#397ba1" d="M 318.5,505.5 C 319.525,505.897 319.692,506.563 319,507.5C 318.536,506.906 318.369,506.239 318.5,505.5 Z"/></g>
<g><path style="opacity:0.004" fill="#37799f" d="M 362.5,512.5 C 363.833,513.167 363.833,513.167 362.5,512.5 Z"/></g>
<g><path style="opacity:0.004" fill="#397a9f" d="M 318.5,514.5 C 319.833,515.167 319.833,515.167 318.5,514.5 Z"/></g>
<g><path style="opacity:0.004" fill="#36779e" d="M 359.5,514.5 C 360.833,515.167 360.833,515.167 359.5,514.5 Z"/></g>
<g><path style="opacity:0.996" fill="#1e3d69" d="M 316.5,497.5 C 317.824,514.736 317.824,532.069 316.5,549.5C 315.778,549.918 315.278,550.584 315,551.5C 315.115,533.369 315.615,515.369 316.5,497.5 Z"/></g>
<g><path style="opacity:0.004" fill="#3778a0" d="M 359.5,516.5 C 360.833,517.167 360.833,517.167 359.5,516.5 Z"/></g>
<g><path style="opacity:0.004" fill="#3a7aa1" d="M 318.5,517.5 C 319.833,518.167 319.833,518.167 318.5,517.5 Z"/></g>
<g><path style="opacity:0.008" fill="#377196" d="M 389.5,519.5 C 390.833,520.167 390.833,520.167 389.5,519.5 Z"/></g>
<g><path style="opacity:0.004" fill="#37779e" d="M 318.5,520.5 C 319.598,521.601 319.765,522.934 319,524.5C 318.51,523.207 318.343,521.873 318.5,520.5 Z"/></g>
<g><path style="opacity:0.006" fill="#3679a1" d="M 318.5,529.5 C 319.613,530.946 319.78,532.613 319,534.5C 318.506,532.866 318.34,531.199 318.5,529.5 Z"/></g>
<g><path style="opacity:0.012" fill="#356e97" d="M 382.5,534.5 C 383.833,535.167 383.833,535.167 382.5,534.5 Z"/></g>
<g><path style="opacity:0.004" fill="#37769c" d="M 351.5,535.5 C 352.833,536.167 352.833,536.167 351.5,535.5 Z"/></g>
<g><path style="opacity:0.008" fill="#336d93" d="M 381.5,536.5 C 382.833,537.167 382.833,537.167 381.5,536.5 Z"/></g>
<g><path style="opacity:0.004" fill="#387aa2" d="M 318.5,537.5 C 319.833,538.167 319.833,538.167 318.5,537.5 Z"/></g>
<g><path style="opacity:0.008" fill="#357093" d="M 382.5,538.5 C 383.833,539.167 383.833,539.167 382.5,538.5 Z"/></g>
<g><path style="opacity:0.004" fill="#387399" d="M 380.5,539.5 C 381.833,540.167 381.833,540.167 380.5,539.5 Z"/></g>
<g><path style="opacity:0.004" fill="#3878a2" d="M 318.5,540.5 C 319.833,541.167 319.833,541.167 318.5,540.5 Z"/></g>
<g><path style="opacity:0.998" fill="#19e5bf" d="M 296.5,504.5 C 296.5,517.167 296.5,529.833 296.5,542.5C 247.167,542.5 197.833,542.5 148.5,542.5C 148.5,529.833 148.5,517.167 148.5,504.5C 197.833,504.5 247.167,504.5 296.5,504.5 Z"/></g>
<g><path style="opacity:0.998" fill="#12b6ab" d="M 149.5,505.5 C 198.167,505.5 246.833,505.5 295.5,505.5C 295.5,517.5 295.5,529.5 295.5,541.5C 246.833,541.5 198.167,541.5 149.5,541.5C 149.5,529.5 149.5,517.5 149.5,505.5 Z"/></g>
<g><path style="opacity:0.999" fill="#0d6e8d" d="M 296.5,504.5 C 297.495,517.323 297.829,530.323 297.5,543.5C 247.664,543.832 197.997,543.499 148.5,542.5C 197.833,542.5 247.167,542.5 296.5,542.5C 296.5,529.833 296.5,517.167 296.5,504.5 Z"/></g>
<g><path style="opacity:0.004" fill="#377095" d="M 379.5,543.5 C 379.897,542.475 380.563,542.308 381.5,543C 380.906,543.464 380.239,543.631 379.5,543.5 Z"/></g>
<g><path style="opacity:0.004" fill="#366f93" d="M 382.5,542.5 C 383.833,543.167 383.833,543.167 382.5,542.5 Z"/></g>
<g><path style="opacity:0.008" fill="#33729c" d="M 318.5,543.5 C 319.833,544.167 319.833,544.167 318.5,543.5 Z"/></g>
<g><path style="opacity:0.008" fill="#35759f" d="M 318.5,545.5 C 319.833,546.167 319.833,546.167 318.5,545.5 Z"/></g>
<g><path style="opacity:0.008" fill="#32739d" d="M 344.5,547.5 C 343.475,547.103 343.308,546.437 344,545.5C 344.464,546.094 344.631,546.761 344.5,547.5 Z"/></g>
<g><path style="opacity:0.012" fill="#2e719c" d="M 344.5,547.5 C 345.167,547.5 345.5,547.833 345.5,548.5C 345.167,548.167 344.833,547.833 344.5,547.5 Z"/></g>
<g><path style="opacity:0.016" fill="#32739d" d="M 317.5,550.5 C 318.833,551.167 318.833,551.167 317.5,550.5 Z"/></g>
<g><path style="opacity:0.01" fill="#3e7290" d="M 128.5,553.5 C 127.475,553.103 127.308,552.437 128,551.5C 128.464,552.094 128.631,552.761 128.5,553.5 Z"/></g>
<g><path style="opacity:0.008" fill="#306f99" d="M 340.5,551.5 C 341.833,552.167 341.833,552.167 340.5,551.5 Z"/></g>
<g><path style="opacity:0.004" fill="#376e93" d="M 373.5,551.5 C 374.833,552.167 374.833,552.167 373.5,551.5 Z"/></g>
<g><path style="opacity:0.004" fill="#3e7493" d="M 128.5,553.5 C 129.167,553.5 129.5,553.833 129.5,554.5C 129.167,554.167 128.833,553.833 128.5,553.5 Z"/></g>
<g><path style="opacity:0.004" fill="#3c7292" d="M 129.5,554.5 C 129.833,554.5 130.167,554.5 130.5,554.5C 130.315,555.17 129.981,555.17 129.5,554.5 Z"/></g>
<g><path style="opacity:0.004" fill="#35719c" d="M 315.5,554.5 C 316.833,555.167 316.833,555.167 315.5,554.5 Z"/></g>
<g><path style="opacity:0.008" fill="#33739a" d="M 336.5,554.5 C 337.833,555.167 337.833,555.167 336.5,554.5 Z"/></g>
<g><path style="opacity:0.004" fill="#3c7290" d="M 129.5,555.5 C 129.483,557.028 128.816,557.528 127.5,557C 128.044,556.283 128.711,555.783 129.5,555.5 Z"/></g>
<g><path style="opacity:0.008" fill="#3b7291" d="M 127.5,558.5 C 128.833,559.167 128.833,559.167 127.5,558.5 Z"/></g>
<g><path style="opacity:0.008" fill="#3c7192" d="M 133.5,558.5 C 132.833,559.167 132.833,559.167 133.5,558.5 Z"/></g>
<g><path style="opacity:0.004" fill="#3b7191" d="M 137.5,561.5 C 137.5,561.833 137.5,562.167 137.5,562.5C 136.83,562.019 136.83,561.685 137.5,561.5 Z"/></g>
<g><path style="opacity:0.986" fill="#061942" d="M 144.5,562.5 C 167.327,561.502 190.327,561.169 213.5,561.5C 213.828,573.012 213.495,584.346 212.5,595.5C 212.5,584.5 212.5,573.5 212.5,562.5C 189.833,562.5 167.167,562.5 144.5,562.5 Z"/></g>
<g><path style="opacity:0.012" fill="#35739a" d="M 308.5,561.5 C 309.833,562.167 309.833,562.167 308.5,561.5 Z"/></g>
<g><path style="opacity:0.008" fill="#3c7393" d="M 137.5,562.5 C 138.833,563.167 138.833,563.167 137.5,562.5 Z"/></g>
<g><path style="opacity:0.004" fill="#3d7495" d="M 141.5,563.5 C 142.833,564.167 142.833,564.167 141.5,563.5 Z"/></g>
<g><path style="opacity:0.004" fill="#357297" d="M 304.5,563.5 C 305.833,564.167 305.833,564.167 304.5,563.5 Z"/></g>
<g><path style="opacity:0.004" fill="#3e7a9d" d="M 144.5,564.5 C 145.833,565.167 145.833,565.167 144.5,564.5 Z"/></g>
<g><path style="opacity:0.004" fill="#3f789b" d="M 146.5,564.5 C 147.833,565.167 147.833,565.167 146.5,564.5 Z"/></g>
<g><path style="opacity:0.004" fill="#3a7aa0" d="M 160.5,564.5 C 161.833,565.167 161.833,565.167 160.5,564.5 Z"/></g>
<g><path style="opacity:0.004" fill="#3b7ba3" d="M 168.5,564.5 C 169.833,565.167 169.833,565.167 168.5,564.5 Z"/></g>
<g><path style="opacity:0.004" fill="#3a7aa3" d="M 176.5,564.5 C 177.833,565.167 177.833,565.167 176.5,564.5 Z"/></g>
<g><path style="opacity:0.004" fill="#3677a2" d="M 183.5,565.5 C 183.897,564.475 184.563,564.308 185.5,565C 184.906,565.464 184.239,565.631 183.5,565.5 Z"/></g>
<g><path style="opacity:0.016" fill="#3576a1" d="M 191.5,565.5 C 192.251,564.427 193.251,564.26 194.5,565C 193.552,565.483 192.552,565.649 191.5,565.5 Z"/></g>
<g><path style="opacity:0.004" fill="#3074a0" d="M 199.5,565.5 C 200.708,564.218 202.042,564.218 203.5,565.5C 202.315,565.876 200.982,565.876 199.5,565.5 Z"/></g>
<g><path style="opacity:0.004" fill="#3373a0" d="M 206.5,564.5 C 207.833,565.167 207.833,565.167 206.5,564.5 Z"/></g>
<g><path style="opacity:0.006" fill="#3274a1" d="M 239.5,565.5 C 240.251,564.427 241.251,564.26 242.5,565C 241.552,565.483 240.552,565.649 239.5,565.5 Z"/></g>
<g><path style="opacity:0.01" fill="#3374a1" d="M 251.5,565.5 C 250.127,565.657 248.793,565.49 247.5,565C 249.066,564.235 250.399,564.402 251.5,565.5 Z"/></g>
<g><path style="opacity:0.004" fill="#3376a3" d="M 256.5,564.5 C 257.833,565.167 257.833,565.167 256.5,564.5 Z"/></g>
<g><path style="opacity:0.004" fill="#3477a3" d="M 263.5,564.5 C 266.001,564.511 266.168,565.178 264,566.5C 263.536,565.906 263.369,565.239 263.5,564.5 Z"/></g>
<g><path style="opacity:0.004" fill="#3577a4" d="M 272.5,564.5 C 273.833,565.167 273.833,565.167 272.5,564.5 Z"/></g>
<g><path style="opacity:0.012" fill="#3476a1" d="M 279.5,565.5 C 279.897,564.475 280.563,564.308 281.5,565C 280.906,565.464 280.239,565.631 279.5,565.5 Z"/></g>
<g><path style="opacity:0.004" fill="#3775a0" d="M 286.5,564.5 C 287.833,565.167 287.833,565.167 286.5,564.5 Z"/></g>
<g><path style="opacity:0.004" fill="#3474a0" d="M 288.5,565.5 C 288.897,564.475 289.563,564.308 290.5,565C 289.906,565.464 289.239,565.631 288.5,565.5 Z"/></g>
<g><path style="opacity:0.008" fill="#34749e" d="M 295.5,565.5 C 296.251,564.427 297.251,564.26 298.5,565C 297.552,565.483 296.552,565.649 295.5,565.5 Z"/></g>
<g><path style="opacity:0.004" fill="#3577a1" d="M 178.5,565.5 C 179.833,566.167 179.833,566.167 178.5,565.5 Z"/></g>
<g><path style="opacity:0.004" fill="#3477a2" d="M 186.5,565.5 C 187.833,566.167 187.833,566.167 186.5,565.5 Z"/></g>
<g><path style="opacity:0.004" fill="#2f6f99" d="M 236.5,566.5 C 235.475,566.103 235.308,565.437 236,564.5C 236.464,565.094 236.631,565.761 236.5,566.5 Z"/></g>
<g><path style="opacity:0.004" fill="#3276a2" d="M 251.5,565.5 C 252.833,566.167 252.833,566.167 251.5,565.5 Z"/></g>
<g><path style="opacity:0.008" fill="#3376a0" d="M 274.5,565.5 C 275.833,566.167 275.833,566.167 274.5,565.5 Z"/></g>
<g><path style="opacity:0.008" fill="#3576a0" d="M 282.5,565.5 C 283.833,566.167 283.833,566.167 282.5,565.5 Z"/></g>
<g><path style="opacity:0.004" fill="#377195" d="M 363.5,565.5 C 364.833,566.167 364.833,566.167 363.5,565.5 Z"/></g>
<g><path style="opacity:0.004" fill="#3b7596" d="M 141.5,566.5 C 142.833,567.167 142.833,567.167 141.5,566.5 Z"/></g>
<g><path style="opacity:0.004" fill="#3b7699" d="M 143.5,566.5 C 144.833,567.167 144.833,567.167 143.5,566.5 Z"/></g>
<g><path style="opacity:0.004" fill="#3174a0" d="M 207.5,566.5 C 208.833,567.167 208.833,567.167 207.5,566.5 Z"/></g>
<g><path style="opacity:0.004" fill="#2f739f" d="M 236.5,566.5 C 237.239,566.369 237.906,566.536 238.5,567C 237.563,567.692 236.897,567.525 236.5,566.5 Z"/></g>
<g><path style="opacity:0.004" fill="#3174a0" d="M 239.5,566.5 C 240.833,567.167 240.833,567.167 239.5,566.5 Z"/></g>
<g><path style="opacity:0.004" fill="#3075a1" d="M 255.5,566.5 C 256.833,567.167 256.833,567.167 255.5,566.5 Z"/></g>
<g><path style="opacity:0.004" fill="#3375a0" d="M 271.5,566.5 C 272.833,567.167 272.833,567.167 271.5,566.5 Z"/></g>
<g><path style="opacity:0.008" fill="#2c6e9d" d="M 209.5,568.5 C 210.833,569.167 210.833,569.167 209.5,568.5 Z"/></g>
<g><path style="opacity:0.004" fill="#2a6d99" d="M 235.5,568.5 C 236.573,569.251 236.74,570.251 236,571.5C 235.517,570.552 235.351,569.552 235.5,568.5 Z"/></g>
<g><path style="opacity:0.004" fill="#386d91" d="M 360.5,569.5 C 361.833,570.167 361.833,570.167 360.5,569.5 Z"/></g>
<g><path style="opacity:0.004" fill="#2a6e9c" d="M 209.5,571.5 C 210.525,571.897 210.692,572.563 210,573.5C 209.536,572.906 209.369,572.239 209.5,571.5 Z"/></g>
<g><path style="opacity:0.008" fill="#296c9a" d="M 235.5,573.5 C 236.833,574.167 236.833,574.167 235.5,573.5 Z"/></g>
<g><path style="opacity:0.004" fill="#276a97" d="M 235.5,578.5 C 236.833,579.167 236.833,579.167 235.5,578.5 Z"/></g>
<g><path style="opacity:0.004" fill="#296d9a" d="M 209.5,579.5 C 210.833,580.167 210.833,580.167 209.5,579.5 Z"/></g>
<g><path style="opacity:0.008" fill="#2b6e9e" d="M 209.5,582.5 C 210.833,583.167 210.833,583.167 209.5,582.5 Z"/></g>
<g><path style="opacity:0.004" fill="#30709b" d="M 310.5,583.5 C 311.833,584.167 311.833,584.167 310.5,583.5 Z"/></g>
<g><path style="opacity:0.016" fill="#32719c" d="M 306.5,584.5 C 307.833,585.167 307.833,585.167 306.5,584.5 Z"/></g>
<g><path style="opacity:0.004" fill="#2f7199" d="M 310.5,584.5 C 310.5,584.833 310.5,585.167 310.5,585.5C 309.83,585.019 309.83,584.685 310.5,584.5 Z"/></g>
<g><path style="opacity:0.004" fill="#31709c" d="M 303.5,586.5 C 304.833,587.167 304.833,587.167 303.5,586.5 Z"/></g>
<g><path style="opacity:0.004" fill="#296e9b" d="M 209.5,587.5 C 210.833,588.167 210.833,588.167 209.5,587.5 Z"/></g>
<g><path style="opacity:0.008" fill="#2c6c99" d="M 304.5,590.5 C 303.833,589.167 303.833,589.167 304.5,590.5 Z"/></g>
<g><path style="opacity:0.004" fill="#2e6f9e" d="M 209.5,592.5 C 210.833,593.167 210.833,593.167 209.5,592.5 Z"/></g>
<g><path style="opacity:0.004" fill="#2f719d" d="M 236.5,593.5 C 235.833,592.167 235.833,592.167 236.5,593.5 Z"/></g>
<g><path style="opacity:0.004" fill="#2d6f9a" d="M 299.5,593.5 C 298.833,592.167 298.833,592.167 299.5,593.5 Z"/></g>
<g><path style="opacity:0.006" fill="#35759a" d="M 180.5,594.5 C 180.897,593.475 181.563,593.308 182.5,594C 181.906,594.464 181.239,594.631 180.5,594.5 Z"/></g>
<g><path style="opacity:0.004" fill="#2f719e" d="M 188.5,593.5 C 189.833,594.167 189.833,594.167 188.5,593.5 Z"/></g>
<g><path style="opacity:0.004" fill="#2d6f9d" d="M 193.5,593.5 C 194.833,594.167 194.833,594.167 193.5,593.5 Z"/></g>
<g><path style="opacity:0.004" fill="#2d6f9c" d="M 197.5,593.5 C 198.833,594.167 198.833,594.167 197.5,593.5 Z"/></g>
<g><path style="opacity:0.008" fill="#2b6a99" d="M 236.5,593.5 C 237.833,594.167 237.833,594.167 236.5,593.5 Z"/></g>
<g><path style="opacity:0.008" fill="#2a6b99" d="M 238.5,593.5 C 239.833,594.167 239.833,594.167 238.5,593.5 Z"/></g>
<g><path style="opacity:0.004" fill="#2d6f9c" d="M 296.5,593.5 C 297.833,594.167 297.833,594.167 296.5,593.5 Z"/></g>
<g><path style="opacity:0.008" fill="#2e729f" d="M 296.5,594.5 C 296.5,594.833 296.5,595.167 296.5,595.5C 295.83,595.019 295.83,594.685 296.5,594.5 Z"/></g>
<g><path style="opacity:0.798" fill="#437ba0" d="M 143.5,562.5 C 143.833,562.5 144.167,562.5 144.5,562.5C 167.167,562.5 189.833,562.5 212.5,562.5C 212.5,573.5 212.5,584.5 212.5,595.5C 212.5,596.167 212.167,596.5 211.5,596.5C 201.167,596.5 190.833,596.5 180.5,596.5C 190.653,595.506 200.986,595.172 211.5,595.5C 211.667,584.828 211.5,574.161 211,563.5C 210.834,567.511 210,568.011 208.5,565C 208.833,564.667 209.167,564.333 209.5,564C 187.33,563.832 165.33,563.332 143.5,562.5 Z"/></g>
<g><path style="opacity:0.008" fill="#306f98" d="M 267.5,595.5 C 268.833,596.167 268.833,596.167 267.5,595.5 Z"/></g>
<g><path style="opacity:0.008" fill="#397298" d="M 176.5,597.5 C 175.833,596.167 175.833,596.167 176.5,597.5 Z"/></g>
<g><path style="opacity:1" fill="#02194e" d="M 265.5,596.5 C 266.463,597.363 266.463,598.03 265.5,598.5C 224.251,597.17 224.251,596.503 265.5,596.5 Z"/></g>
<g><path style="opacity:0.004" fill="#30719d" d="M 273.5,600.5 C 272.833,599.167 272.833,599.167 273.5,600.5 Z"/></g>
<g><path style="opacity:0.004" fill="#2a6e9b" d="M 287.5,600.5 C 286.761,600.631 286.094,600.464 285.5,600C 286.437,599.308 287.103,599.475 287.5,600.5 Z"/></g>
<g><path style="opacity:0.004" fill="#2e709b" d="M 273.5,600.5 C 274.833,601.167 274.833,601.167 273.5,600.5 Z"/></g>
<g><path style="opacity:0.004" fill="#347198" d="M 324.5,606.5 C 325.833,607.167 325.833,607.167 324.5,606.5 Z"/></g>
<g><path style="opacity:0.004" fill="#356e93" d="M 314.5,613.5 C 315.833,614.167 315.833,614.167 314.5,613.5 Z"/></g>
<g><path style="opacity:0.008" fill="#366f93" d="M 307.5,618.5 C 308.833,619.167 308.833,619.167 307.5,618.5 Z"/></g>
<g><path style="opacity:0.008" fill="#397191" d="M 305.5,619.5 C 306.833,620.167 306.833,620.167 305.5,619.5 Z"/></g>
<g><path style="opacity:0.008" fill="#376e95" d="M 305.5,620.5 C 304.833,621.167 304.833,621.167 305.5,620.5 Z"/></g>
<g><path style="opacity:0.008" fill="#377097" d="M 300.5,622.5 C 301.833,623.167 301.833,623.167 300.5,622.5 Z"/></g>
<g><path style="opacity:0.004" fill="#336f98" d="M 283.5,630.5 C 284.833,631.167 284.833,631.167 283.5,630.5 Z"/></g>
<g><path style="opacity:0.004" fill="#357193" d="M 292.5,630.5 C 293.833,631.167 293.833,631.167 292.5,630.5 Z"/></g>
<g><path style="opacity:0.004" fill="#306f98" d="M 278.5,634.5 C 279.525,634.897 279.692,635.563 279,636.5C 278.536,635.906 278.369,635.239 278.5,634.5 Z"/></g>
<g><path style="opacity:0.004" fill="#31719a" d="M 278.5,642.5 C 279.833,643.167 279.833,643.167 278.5,642.5 Z"/></g>
<g><path style="opacity:0.004" fill="#32739b" d="M 278.5,650.5 C 279.525,650.897 279.692,651.563 279,652.5C 278.536,651.906 278.369,651.239 278.5,650.5 Z"/></g>
<g><path style="opacity:0.288" fill="#4380a4" d="M 280.5,630.5 C 279.828,631.267 278.995,631.934 278,632.5C 277.5,645.496 277.333,658.496 277.5,671.5C 277.167,671.5 276.833,671.5 276.5,671.5C 276.5,658.167 276.5,644.833 276.5,631.5C 277.708,630.766 279.041,630.433 280.5,630.5 Z"/></g>
<g><path style="opacity:0.999" fill="#1ad6b7" d="M 190.5,615.5 C 190.5,631.833 190.5,648.167 190.5,664.5C 212.167,664.5 233.833,664.5 255.5,664.5C 255.5,648.167 255.5,631.833 255.5,615.5C 257.485,631.8 258.152,648.466 257.5,665.5C 234.833,665.5 212.167,665.5 189.5,665.5C 189.17,648.658 189.503,631.992 190.5,615.5 Z"/></g>
<g><path style="opacity:0.999" fill="#12b7ac" d="M 190.5,615.5 C 212.167,615.5 233.833,615.5 255.5,615.5C 255.5,631.833 255.5,648.167 255.5,664.5C 233.833,664.5 212.167,664.5 190.5,664.5C 190.5,648.167 190.5,631.833 190.5,615.5 Z"/></g>
<g><path style="opacity:0.008" fill="#336d8e" d="M 277.5,671.5 C 278.833,672.167 278.833,672.167 277.5,671.5 Z"/></g>
<g><path style="opacity:0.012" fill="#3a6c90" d="M 168.5,674.5 C 167.833,673.167 167.833,673.167 168.5,674.5 Z"/></g>
<g><path style="opacity:0.012" fill="#386e8d" d="M 168.5,674.5 C 168.833,674.5 169.167,674.5 169.5,674.5C 169.737,675.791 169.404,676.791 168.5,677.5C 168.5,676.5 168.5,675.5 168.5,674.5 Z"/></g>
<g><path style="opacity:0.005" fill="#366c8d" d="M 168.5,677.5 C 169.463,678.363 169.463,679.03 168.5,679.5C 167.227,678.743 167.227,678.077 168.5,677.5 Z"/></g>
<g><path style="opacity:0.008" fill="#3c7192" d="M 171.5,678.5 C 170.833,679.167 170.833,679.167 171.5,678.5 Z"/></g>
<g><path style="opacity:0.999" fill="#1d3f6a" d="M 180.5,596.5 C 190.833,596.5 201.167,596.5 211.5,596.5C 201.675,597.33 191.675,597.83 181.5,598C 178.436,599.064 175.936,600.897 174,603.5C 173.985,605.791 173.818,607.958 173.5,610C 174.167,610.333 174.833,610.667 175.5,611C 173.598,611.199 172.098,612.033 171,613.5C 170.333,632.833 170.333,652.167 171,671.5C 172.833,677.333 176.667,681.167 182.5,683C 210.562,683.975 238.562,683.641 266.5,682C 271.729,679.442 274.562,675.275 275,669.5C 275.169,656.66 275.669,643.993 276.5,631.5C 276.5,644.833 276.5,658.167 276.5,671.5C 275.195,678.309 271.195,682.809 264.5,685C 236.124,685.817 207.791,685.65 179.5,684.5C 176.574,682.916 173.908,680.916 171.5,678.5C 171.34,676.847 170.674,675.514 169.5,674.5C 168.366,652.531 168.199,630.531 169,608.5C 170.518,604.151 173.018,600.484 176.5,597.5C 177.833,597.167 179.167,596.833 180.5,596.5 Z"/></g>
<g><path style="opacity:0.004" fill="#3a6f8e" d="M 175.5,684.5 C 176.833,685.167 176.833,685.167 175.5,684.5 Z"/></g>
<g><path style="opacity:0.008" fill="#396d8e" d="M 179.5,684.5 C 179.489,687.001 178.822,687.168 177.5,685C 178.094,684.536 178.761,684.369 179.5,684.5 Z"/></g>
<g><path style="opacity:0.008" fill="#367090" d="M 175.5,686.5 C 176.833,687.167 176.833,687.167 175.5,686.5 Z"/></g>
<g><path style="opacity:0.004" fill="#337398" d="M 191.5,686.5 C 192.833,687.167 192.833,687.167 191.5,686.5 Z"/></g>
<g><path style="opacity:0.004" fill="#35739b" d="M 196.5,686.5 C 197.833,687.167 197.833,687.167 196.5,686.5 Z"/></g>
<g><path style="opacity:0.005" fill="#357398" d="M 199.5,687.5 C 200.251,686.427 201.251,686.26 202.5,687C 201.552,687.483 200.552,687.649 199.5,687.5 Z"/></g>
<g><path style="opacity:0.004" fill="#357398" d="M 203.5,686.5 C 204.833,687.167 204.833,687.167 203.5,686.5 Z"/></g>
<g><path style="opacity:0.004" fill="#347396" d="M 207.5,687.5 C 207.897,686.475 208.563,686.308 209.5,687C 208.906,687.464 208.239,687.631 207.5,687.5 Z"/></g>
<g><path style="opacity:0.004" fill="#35739a" d="M 220.5,686.5 C 221.833,687.167 221.833,687.167 220.5,686.5 Z"/></g>
<g><path style="opacity:0.004" fill="#337298" d="M 223.5,687.5 C 223.897,686.475 224.563,686.308 225.5,687C 224.906,687.464 224.239,687.631 223.5,687.5 Z"/></g>
<g><path style="opacity:0.004" fill="#357299" d="M 226.5,687.5 C 226.897,686.475 227.563,686.308 228.5,687C 227.906,687.464 227.239,687.631 226.5,687.5 Z"/></g>
<g><path style="opacity:0.004" fill="#357297" d="M 231.5,687.5 C 231.897,686.475 232.563,686.308 233.5,687C 232.906,687.464 232.239,687.631 231.5,687.5 Z"/></g>
<g><path style="opacity:0.004" fill="#347195" d="M 239.5,687.5 C 239.897,686.475 240.563,686.308 241.5,687C 240.906,687.464 240.239,687.631 239.5,687.5 Z"/></g>
<g><path style="opacity:0.004" fill="#357197" d="M 243.5,687.5 C 243.897,686.475 244.563,686.308 245.5,687C 244.906,687.464 244.239,687.631 243.5,687.5 Z"/></g>
<g><path style="opacity:0.004" fill="#377197" d="M 252.5,686.5 C 253.833,687.167 253.833,687.167 252.5,686.5 Z"/></g>
<g><path style="opacity:0.008" fill="#377297" d="M 256.5,686.5 C 257.833,687.167 257.833,687.167 256.5,686.5 Z"/></g>
<g><path style="opacity:0.004" fill="#377296" d="M 258.5,686.5 C 259.833,687.167 259.833,687.167 258.5,686.5 Z"/></g>
<g><path style="opacity:0.004" fill="#232827" d="M 307.5,933.5 C 308.833,934.167 308.833,934.167 307.5,933.5 Z"/></g>
</svg>
