
<!-- Generator: visioncortex VTracer 0.6.4 -->
<svg version="1.1" xmlns="http://www.w3.org/2000/svg" viewBox="0 0 263 84" preserveAspectRatio="xMidYMid meet">
<path d="M0 0 C86.79 0 173.58 0 263 0 C263 27.72 263 55.44 263 84 C176.21 84 89.42 84 0 84 C0 56.28 0 28.56 0 0 Z " fill="#FDFDFD" transform="translate(0,0)"/>
<path d="M0 0 C2.384 1.152 2.384 1.152 4.836 2.582 C5.736 3.102 6.635 3.622 7.562 4.158 C8.955 4.977 8.955 4.977 10.375 5.812 C11.295 6.347 12.216 6.881 13.164 7.432 C14.897 8.438 16.628 9.447 18.357 10.46 C21.56 12.326 24.779 14.164 28 16 C28.223 21.302 28.386 26.601 28.494 31.906 C28.54 33.708 28.601 35.511 28.679 37.312 C29.308 52.195 29.308 52.195 26.286 56.365 C23.92 57.972 21.668 58.979 19 60 C17.418 60.881 15.847 61.782 14.289 62.703 C12.737 63.556 11.182 64.405 9.625 65.25 C8.054 66.108 6.484 66.968 4.914 67.828 C3.892 68.384 3.892 68.384 2.85 68.95 C1.189 69.893 -0.411 70.941 -2 72 C-6.322 71.683 -9.588 69.78 -13.324 67.691 C-13.912 67.365 -14.499 67.038 -15.104 66.701 C-16.339 66.013 -17.572 65.321 -18.803 64.626 C-20.688 63.562 -22.579 62.51 -24.471 61.459 C-33.704 56.296 -33.704 56.296 -36 54 C-40.223 24.552 -40.223 24.552 -34.548 14.404 C-30.787 10.746 -26.273 9.209 -21.31 7.769 C-17.604 6.535 -14.514 4.418 -11.25 2.312 C-6.842 -0.377 -4.961 -1.408 0 0 Z " fill="#478DB7" transform="translate(48,7)"/>
<path d="M0 0 C1.686 0.86 3.346 1.774 4.984 2.723 C5.919 3.261 6.854 3.799 7.816 4.354 C8.784 4.917 9.753 5.481 10.75 6.062 C11.734 6.63 12.717 7.198 13.73 7.783 C16.156 9.184 18.579 10.59 21 12 C17.456 15.821 13.084 18.132 8.625 20.75 C7.774 21.269 6.923 21.789 6.047 22.324 C5.219 22.81 4.392 23.296 3.539 23.797 C2.413 24.467 2.413 24.467 1.264 25.151 C-1.637 26.239 -3.065 25.925 -6 25 C-8.404 23.877 -8.404 23.877 -10.863 22.496 C-11.75 22.003 -12.636 21.51 -13.549 21.002 C-14.461 20.486 -15.373 19.969 -16.312 19.438 C-17.244 18.917 -18.175 18.397 -19.135 17.861 C-21.427 16.58 -23.715 15.293 -26 14 C-24.304 8.912 -19.188 7.296 -14.688 4.75 C-13.242 3.899 -13.242 3.899 -11.768 3.031 C-10.838 2.5 -9.907 1.969 -8.949 1.422 C-8.097 0.933 -7.244 0.444 -6.366 -0.06 C-3.593 -1.162 -2.724 -1.118 0 0 Z " fill="#8DF3FC" transform="translate(47,13)"/>
<path d="M0 0 C1.355 9.172 2.764 19.002 0 28 C-5.423 34.635 -13.999 38.332 -22 41 C-22.66 41 -23.32 41 -24 41 C-26.051 17.62 -26.051 17.62 -22.885 12.033 C-19.571 8.793 -15.292 7.486 -11 6 C-9.056 4.879 -7.136 3.716 -5.25 2.5 C-1.128 0 -1.128 0 0 0 Z " fill="#6AD2FD" transform="translate(71,30)"/>
<path d="M0 0 C3.735 1.17 7.116 2.457 10.523 4.383 C11.239 4.784 11.955 5.185 12.693 5.598 C13.578 6.102 14.463 6.606 15.375 7.125 C19.644 9.538 19.644 9.538 24 12 C24 21.24 24 30.48 24 40 C22.35 39.34 20.7 38.68 19 38 C17.856 37.6 17.856 37.6 16.688 37.192 C10.44 34.931 4.135 32.391 0 27 C-2.419 18.288 -1.158 8.852 0 0 Z " fill="#69D1FD" transform="translate(17,31)"/>
<path d="M0 0 C3.749 1.666 5.809 3.567 8 7 C8.915 11.234 8.816 15.254 6.969 19.207 C4.896 22.034 3.236 23.705 -0.227 24.531 C-4.886 24.718 -8.324 24.028 -12 21 C-15.534 17.068 -15.691 13.854 -15.539 8.707 C-14.771 4.853 -13.24 3.181 -10.07 0.961 C-6.405 -0.74 -4.018 -0.583 0 0 Z " fill="#596D79" transform="translate(99,31)"/>
<path d="M0 0 C13.125 -0.67 13.125 -0.67 16.75 2.375 C19.85 5.992 20.346 8.095 20.285 12.898 C19.818 16.338 18.219 18.411 16 21 C11.165 24.195 5.568 23.121 0 23 C0 15.41 0 7.82 0 0 Z " fill="#62737E" transform="translate(209,32)"/>
<path d="M0 0 C12.467 -0.37 12.467 -0.37 14.906 1.324 C16.56 3.859 16.185 6.043 16 9 C16 10.647 16.021 12.295 16.141 13.938 C16.195 14.958 16.195 14.958 16.25 16 C16.296 16.681 16.343 17.361 16.391 18.062 C16 20 16 20 14.375 21.738 C11.327 23.358 9.182 23.299 5.75 23.188 C2.904 23.095 2.904 23.095 0 23 C0 15.41 0 7.82 0 0 Z " fill="#62737E" transform="translate(231,32)"/>
<path d="M0 0 C12 0 12 0 15.25 2.062 C17.472 5.793 17.763 7.726 17 12 C14.875 14.938 14.875 14.938 12 17 C8.796 17.377 6.889 17.444 4 16 C4 18.64 4 21.28 4 24 C2.68 24 1.36 24 0 24 C0 16.08 0 8.16 0 0 Z " fill="#5C6E7A" transform="translate(110,38)"/>
<path d="M0 0 C1.939 -0.021 3.877 -0.041 5.875 -0.062 C6.966 -0.074 8.056 -0.086 9.18 -0.098 C12 0 12 0 14 1 C14.66 0.67 15.32 0.34 16 0 C19.5 -0.25 19.5 -0.25 23 0 C25.491 3.737 25.207 5.745 25.125 10.188 C25.107 11.46 25.089 12.732 25.07 14.043 C25.047 15.019 25.024 15.995 25 17 C23.35 17 21.7 17 20 17 C20 12.71 20 8.42 20 4 C18.68 4.33 17.36 4.66 16 5 C15.67 8.96 15.34 12.92 15 17 C13.35 17 11.7 17 10 17 C9.67 13.04 9.34 9.08 9 5 C7.68 5 6.36 5 5 5 C4.67 8.96 4.34 12.92 4 17 C2.68 17 1.36 17 0 17 C0 11.39 0 5.78 0 0 Z " fill="#61727D" transform="translate(149,38)"/>
<path d="M0 0 C2.551 2.222 2.933 3.608 3.5 6.938 C3 10 3 10 0.938 12.938 C-2 15 -2 15 -5.625 15.125 C-9 14 -9 14 -11 11.875 C-12.308 8.115 -12.061 5.819 -11 2 C-7.809 -1.927 -4.604 -1.256 0 0 Z " fill="#F3F3F4" transform="translate(100,36)"/>
<path d="M0 0 C1.65 0 3.3 0 5 0 C5.33 3.96 5.66 7.92 6 12 C7.65 11.67 9.3 11.34 11 11 C11.33 7.37 11.66 3.74 12 0 C13.32 0 14.64 0 16 0 C16 5.61 16 11.22 16 17 C6.137 17.488 6.137 17.488 3 17 C-0.189 13.445 -0.341 10.334 -0.188 5.688 C-0.16 4.619 -0.133 3.55 -0.105 2.449 C-0.071 1.641 -0.036 0.833 0 0 Z " fill="#5E6F7B" transform="translate(176,38)"/>
<path d="M0 0 C3.562 0.312 3.562 0.312 5.5 1.812 C5.851 2.307 6.201 2.803 6.562 3.312 C6.232 3.972 5.903 4.633 5.562 5.312 C3.583 5.312 1.602 5.312 -0.438 5.312 C3.028 7.293 3.028 7.293 6.562 9.312 C6.307 11.656 5.97 13.991 5.562 16.312 C2.348 17.92 -0.874 17.37 -4.438 17.312 C-5.097 15.992 -5.757 14.672 -6.438 13.312 C-3.148 12.216 -1.724 12.513 1.562 13.312 C1.562 12.322 1.562 11.332 1.562 10.312 C0.614 10.189 -0.335 10.065 -1.312 9.938 C-4.438 9.312 -4.438 9.312 -6.438 7.312 C-5.951 2.452 -5.145 0.468 0 0 Z " fill="#61717D" transform="translate(200.4375,37.6875)"/>
<path d="M0 0 C1.65 0 3.3 0 5 0 C5 1.65 5 3.3 5 5 C6.32 5 7.64 5 9 5 C9 6.32 9 7.64 9 9 C7.68 9 6.36 9 5 9 C5 11.97 5 14.94 5 18 C6.32 18 7.64 18 9 18 C9 19.32 9 20.64 9 22 C5.625 22.125 5.625 22.125 2 22 C0 20 0 20 -0.195 17.398 C-0.172 16.401 -0.149 15.403 -0.125 14.375 C-0.107 13.372 -0.089 12.369 -0.07 11.336 C-0.047 10.565 -0.024 9.794 0 9 C-0.66 9 -1.32 9 -2 9 C-2 7.68 -2 6.36 -2 5 C-1.34 5 -0.68 5 0 5 C0 3.35 0 1.7 0 0 Z " fill="#64747E" transform="translate(130,33)"/>
<path d="M0 0 C6 0 6 0 8.375 1.562 C10.6 4.899 10.5 7.069 10 11 C8.938 12.938 8.938 12.938 7 14 C4.69 14 2.38 14 0 14 C0 9.38 0 4.76 0 0 Z " fill="#F5F5F5" transform="translate(214,36)"/>
<path d="M0 0 C1.65 0 3.3 0 5 0 C5 5.61 5 11.22 5 17 C3.35 17 1.7 17 0 17 C0 11.39 0 5.78 0 0 Z " fill="#687680" transform="translate(141,38)"/>
<path d="M0 0 C4.556 0.556 4.556 0.556 6 2 C6.188 4.437 6.188 4.437 6 7 C5.34 7.66 4.68 8.32 4 9 C-0.556 8.444 -0.556 8.444 -2 7 C-2.188 4.562 -2.188 4.562 -2 2 C-1.34 1.34 -0.68 0.68 0 0 Z " fill="#F9F9F9" transform="translate(116,42)"/>
<path d="M0 0 C1.98 0 3.96 0 6 0 C6.562 1.938 6.562 1.938 7 4 C6 5 6 5 2.938 5.062 C1.483 5.032 1.483 5.032 0 5 C0 3.35 0 1.7 0 0 Z " fill="#F0F0F0" transform="translate(236,45)"/>
<path d="M0 0 C1.98 0 3.96 0 6 0 C5.67 1.65 5.34 3.3 5 5 C3.35 5 1.7 5 0 5 C0 3.35 0 1.7 0 0 Z " fill="#F9F9F9" transform="translate(236,36)"/>
<path d="M0 0 C1.98 0.495 1.98 0.495 4 1 C3.67 2.32 3.34 3.64 3 5 C1.68 4.67 0.36 4.34 -1 4 C-0.67 2.68 -0.34 1.36 0 0 Z " fill="#62717B" transform="translate(142,31)"/>
</svg>